<svg width="3803" height="913" viewBox="0 0 3803 913" fill="none" xmlns="http://www.w3.org/2000/svg">
<path d="M753.316 245.633C754.306 245.963 755.296 246.293 756.316 246.633C755.775 252.397 753.518 256.92 750.941 262.008C750.497 262.886 750.054 263.765 749.597 264.67C743.064 277.306 735.082 288.303 725.316 298.633C724.249 299.9 723.186 301.171 722.128 302.446C713.241 312.603 702.7 321.203 691.992 329.351C690.4 330.569 688.824 331.807 687.249 333.047C672.879 344.316 657.721 354.465 642.382 364.356C622.218 377.367 602.088 390.657 583.316 405.633C582.687 406.132 582.059 406.63 581.411 407.144C572.392 414.313 563.641 421.66 555.316 429.633C554.789 430.133 554.262 430.632 553.719 431.147C545.953 438.546 539.012 446.289 532.611 454.898C531.358 456.577 530.079 458.234 528.796 459.891C500.071 497.699 485.784 552.145 491.837 599.082C496.584 632.62 507.219 665.063 527.316 692.633C528.063 693.675 528.811 694.716 529.581 695.789C531.478 698.415 533.389 701.029 535.316 703.633C539.391 701.917 542.565 699.105 545.941 696.321C577.432 670.806 612.487 649.453 648.316 630.633C649.296 630.113 650.276 629.592 651.286 629.056C679.05 614.325 707.37 600.565 735.933 587.458C748.15 581.833 760.219 575.907 772.303 570.003C773.07 569.629 773.838 569.254 774.628 568.867C775.764 568.313 775.764 568.313 776.923 567.746C783.14 564.712 789.379 561.726 795.628 558.758C806.383 553.642 817.029 548.316 827.665 542.96C829.985 541.799 832.311 540.654 834.644 539.52C857.143 528.56 878.634 515.684 897.472 499.11C900.045 496.869 902.683 494.784 905.378 492.696C911.131 488.022 916.326 482.806 921.566 477.571C922.418 476.719 923.27 475.868 924.148 474.991C928.529 470.571 932.762 466.079 936.818 461.36C938.768 459.112 940.826 456.975 942.878 454.821C988.419 404.663 1013.21 336.68 1017.63 269.789C1017.7 268.903 1017.76 268.018 1017.82 267.106C1017.9 265.95 1017.9 265.95 1017.97 264.77C1018.35 262.413 1019.15 260.704 1020.32 258.633C1020.98 258.633 1021.64 258.633 1022.32 258.633C1025.98 284.029 1027.01 309.31 1022.32 334.633C1022.08 335.919 1021.85 337.205 1021.62 338.53C1008.71 409.978 975.335 474.642 926.441 528.289C924.491 530.44 922.586 532.621 920.691 534.821C917.945 537.977 915.049 540.922 912.066 543.852C910.233 545.717 908.522 547.652 906.816 549.633C902.366 554.776 897.661 559.513 892.503 563.946C888.455 567.43 884.728 571.183 881.003 575.008C878.237 577.71 875.36 580.228 872.439 582.759C868.868 585.911 865.448 589.219 862.003 592.508C856.485 597.739 850.929 602.772 844.976 607.504C841.929 609.943 838.968 612.471 836.003 615.008C831.041 619.236 825.972 623.3 820.824 627.299C816.12 630.966 811.526 634.756 806.941 638.571C800.888 643.593 794.726 648.413 788.406 653.094C783.316 656.866 778.305 660.73 773.316 664.633C767.116 669.477 760.869 674.25 754.564 678.956C746.284 685.139 738.076 691.417 729.863 697.689C727.473 699.513 725.082 701.335 722.691 703.156C714.413 709.466 706.189 715.838 698.022 722.29C696.284 723.658 694.539 725.018 692.792 726.375C685.857 731.773 679.077 737.313 672.394 743.02C669.589 745.412 666.741 747.748 663.878 750.071C654.188 757.983 644.702 765.953 636.011 774.965C633.968 776.987 631.928 778.848 629.749 780.711C624.542 785.222 619.702 790.097 614.843 794.976C613.256 796.568 611.664 798.154 610.072 799.74C604.609 805.2 599.332 810.756 594.316 816.633C592.903 818.178 591.486 819.72 590.066 821.258C584.985 826.89 580.356 832.836 575.719 838.832C574.357 840.58 572.979 842.314 571.593 844.043C554.419 865.514 539.842 888.727 526.316 912.633C523.074 912.52 523.074 912.52 519.316 911.633C517.525 909.507 516.437 907.865 515.191 905.446C514.418 904.058 513.645 902.672 512.87 901.285C512.46 900.532 512.05 899.779 511.627 899.004C509.29 894.78 506.788 890.654 504.316 886.508C497.346 874.715 490.408 862.905 483.5 851.076C481.142 847.04 478.769 843.013 476.39 838.989C451.206 796.172 434.52 752.319 426.066 703.258C425.915 702.394 425.763 701.529 425.608 700.638C422.623 682.329 421.941 664.028 422.003 645.508C422.005 644.388 422.007 643.268 422.009 642.114C422.054 625.433 422.535 609.115 425.316 592.633C425.482 591.586 425.648 590.54 425.82 589.462C432.663 547.128 448.796 506.478 472.316 470.633C472.751 469.967 473.186 469.301 473.634 468.615C480.939 457.508 488.969 446.974 497.316 436.633C497.807 436.022 498.298 435.411 498.804 434.781C506.282 425.571 514.584 417.162 522.941 408.758C523.47 408.223 523.999 407.689 524.544 407.138C531.468 400.162 538.619 393.765 546.316 387.633C547.418 386.698 548.514 385.757 549.601 384.805C571.04 366.11 595.541 351.432 620.316 337.633C621.343 337.06 622.37 336.486 623.429 335.896C633.702 330.166 643.986 324.457 654.3 318.801C688.933 299.769 723.131 278.756 749.39 248.715C751.316 246.633 751.316 246.633 753.316 245.633Z" fill="#001B7B"/>
<path d="M443.821 63.9631C450.399 69.8509 456.745 75.9709 463.003 82.1955C463.604 82.7913 464.204 83.3871 464.823 84.0009C465.66 84.8417 465.66 84.8417 466.515 85.6994C467.008 86.1939 467.502 86.6883 468.01 87.1977C469.316 88.633 469.316 88.633 471.316 91.633C470.941 94.3205 470.941 94.3205 470.316 96.633C465.614 96.1354 463.176 94.2225 459.566 91.258C425.766 64.3759 385.56 48.9288 343.316 41.633C342.557 41.4988 341.799 41.3646 341.017 41.2263C317.303 37.2309 290.868 38.2687 267.316 42.633C265.927 42.8824 265.927 42.8824 264.51 43.1369C226.602 50.122 189.532 66.1236 160.316 91.633C159.187 92.5998 159.187 92.5998 158.035 93.5861C145.572 104.511 134.032 116.19 124.316 129.633C123.906 130.194 123.495 130.754 123.073 131.332C101.767 160.759 89.3843 195.684 85.3158 231.633C85.2215 232.45 85.1272 233.266 85.0301 234.107C77.1892 309.69 105.638 389.768 152.809 448.492C155.091 451.261 157.42 453.986 159.777 456.692C162.159 459.452 164.428 462.274 166.691 465.133C170.71 470.085 175.105 474.54 179.652 478.999C182.571 481.865 185.368 484.749 188.003 487.883C191.296 491.763 195.021 495.048 198.835 498.406C201.12 500.457 203.29 502.569 205.441 504.758C209.234 508.596 213.222 512.121 217.316 515.633C218.444 516.613 219.572 517.593 220.699 518.574C232.723 529.038 244.797 539.364 257.391 549.138C259.419 550.713 261.442 552.294 263.464 553.875C279.401 566.324 295.422 578.642 311.859 590.426C316.519 593.769 321.139 597.165 325.753 600.57C326.54 601.151 327.327 601.732 328.138 602.331C331.33 604.687 334.521 607.045 337.711 609.404C339.307 610.582 340.902 611.761 342.498 612.938C344.074 614.102 345.649 615.266 347.223 616.431C351.267 619.417 355.333 622.364 359.441 625.262C360.269 625.849 361.097 626.436 361.95 627.041C363.531 628.159 365.116 629.269 366.707 630.372C367.414 630.873 368.122 631.374 368.851 631.891C369.474 632.325 370.096 632.76 370.738 633.208C374.947 637.01 374.743 641.801 375.027 647.156C375.136 648.902 375.245 650.648 375.354 652.394C375.409 653.31 375.463 654.225 375.519 655.169C377.683 690.951 383.11 725.515 392.8 760.086C394.145 764.906 395.28 769.738 396.316 774.633C395.326 775.293 394.336 775.953 393.316 776.633C388.268 772.679 383.304 768.649 378.469 764.439C372.062 758.862 365.477 753.607 358.7 748.487C354.045 744.969 349.472 741.371 344.941 737.695C331.253 726.644 316.828 716.521 302.554 706.246C300.295 704.618 298.039 702.986 295.785 701.352C288.491 696.069 281.181 690.815 273.816 685.633C265.686 679.914 257.626 674.102 249.577 668.27C247.336 666.648 245.092 665.03 242.847 663.414C226.479 651.63 210.241 639.717 194.382 627.254C192.438 625.729 190.487 624.211 188.535 622.695C181.683 617.368 174.995 611.886 168.398 606.246C165.579 603.842 162.704 601.515 159.816 599.195C155.061 595.329 150.549 591.248 146.081 587.057C143.382 584.526 140.652 582.064 137.831 579.668C131.846 574.457 126.306 568.772 120.707 563.154C118.758 561.2 116.804 559.251 114.849 557.303C108.794 551.251 102.813 545.205 97.3158 538.633C96.4394 537.623 95.5618 536.614 94.6829 535.606C50.9199 484.503 18.1526 423.282 5.06576 357.008C4.81922 355.77 4.57269 354.532 4.31869 353.257C0.963141 335.552 -0.0662266 318.069 0.00325749 300.071C0.00541264 299.061 0.00756779 298.052 0.00978825 297.012C0.0632613 281.367 0.57204 266.073 3.31576 250.633C3.62175 248.898 3.62175 248.898 3.93392 247.128C14.559 188.683 41.5769 130.706 84.8783 89.0705C86.5576 87.4404 86.5576 87.4404 88.7533 84.633C91.3124 81.637 93.9819 79.2067 96.9759 76.6643C99.6629 74.3317 102.229 71.8885 104.816 69.4455C171.721 7.37463 273.204 -15.973 443.821 63.9631Z" fill="#E21920"/>
<path d="M1799.26 217.539C1805.68 223.919 1811.54 230.941 1816.32 238.633C1816.32 239.293 1816.32 239.953 1816.32 240.633C1821.54 236.196 1826.56 231.564 1831.57 226.883C1832.22 226.276 1832.87 225.668 1833.54 225.042C1836.54 222.241 1839.53 219.433 1842.5 216.598C1871.78 188.822 1908.61 179.055 1948.32 179.633C1989.39 181.096 2025.78 198.794 2054 228.383C2069.64 245.741 2081.15 267.161 2087.32 289.633C2087.5 290.308 2087.69 290.984 2087.89 291.679C2092.77 310.067 2091.89 329.119 2091.86 347.977C2091.85 352.831 2091.87 357.686 2091.89 362.54C2091.92 371.718 2091.93 380.896 2091.94 390.074C2091.94 406.503 2091.97 422.933 2092.02 439.363C2092.04 445.111 2092.04 450.86 2092.04 456.608C2092.04 460.197 2092.05 463.786 2092.06 467.374C2092.06 469.021 2092.06 470.667 2092.05 472.313C2091.76 497.063 2091.76 497.063 2102.95 518.321C2104.3 519.75 2104.3 519.75 2106.32 520.633C2106.32 521.293 2106.32 521.953 2106.32 522.633C2081.24 522.633 2056.16 522.633 2030.32 522.633C2030.32 521.973 2030.32 521.313 2030.32 520.633C2031.36 519.735 2032.46 518.889 2033.57 518.071C2039.44 513.211 2041.29 506.985 2042.32 499.633C2042.41 497.186 2042.45 494.737 2042.46 492.289C2042.47 491.212 2042.47 491.212 2042.47 490.113C2042.49 487.719 2042.49 485.324 2042.49 482.929C2042.5 481.207 2042.51 479.485 2042.51 477.763C2042.53 472.113 2042.54 466.463 2042.55 460.813C2042.56 458.86 2042.56 456.907 2042.57 454.954C2042.59 445.768 2042.6 436.582 2042.61 427.397C2042.62 416.838 2042.64 406.279 2042.68 395.72C2042.71 387.533 2042.73 379.346 2042.73 371.159C2042.74 366.282 2042.74 361.406 2042.77 356.529C2042.95 320.726 2040.37 288.442 2015.32 260.633C2014.62 259.853 2013.92 259.073 2013.2 258.27C2000.23 244.538 1982.51 235.238 1964.32 230.633C1963.55 230.42 1962.78 230.208 1961.99 229.989C1935.2 223.488 1907.78 229.744 1884.55 243.696C1875.94 249.084 1868.57 255.6 1861.32 262.633C1860.49 263.431 1859.66 264.229 1858.81 265.051C1854.55 269.239 1850.52 273.566 1846.63 278.102C1845.88 278.97 1845.12 279.825 1844.32 280.633C1844.21 283.345 1844.17 286.032 1844.18 288.745C1844.17 289.606 1844.17 290.467 1844.17 291.354C1844.16 294.262 1844.16 297.169 1844.15 300.077C1844.15 302.153 1844.14 304.229 1844.14 306.305C1844.13 311.965 1844.12 317.624 1844.12 323.284C1844.11 326.822 1844.11 330.36 1844.1 333.898C1844.09 344.97 1844.08 356.043 1844.08 367.116C1844.07 379.888 1844.05 392.66 1844.03 405.432C1844 415.305 1843.99 425.179 1843.99 435.052C1843.99 440.947 1843.99 446.842 1843.97 452.737C1843.95 458.293 1843.95 463.848 1843.96 469.404C1843.96 471.435 1843.95 473.466 1843.94 475.497C1843.49 496.112 1843.49 496.112 1851.32 514.633C1853.13 516.308 1854.97 517.87 1856.93 519.371C1857.38 519.788 1857.84 520.204 1858.32 520.633C1858.32 521.293 1858.32 521.953 1858.32 522.633C1832.91 522.633 1807.5 522.633 1781.32 522.633C1782.97 520.983 1784.62 519.333 1786.32 517.633C1793.55 509.146 1794.43 499.169 1794.45 488.356C1794.45 487.67 1794.45 486.983 1794.46 486.276C1794.46 484 1794.46 481.725 1794.46 479.449C1794.46 477.807 1794.47 476.166 1794.47 474.524C1794.48 470.079 1794.48 465.634 1794.48 461.19C1794.48 458.406 1794.49 455.623 1794.49 452.839C1794.5 443.109 1794.5 433.379 1794.5 423.649C1794.5 414.612 1794.51 405.574 1794.53 396.537C1794.54 388.753 1794.55 380.969 1794.54 373.186C1794.54 368.548 1794.55 363.91 1794.56 359.273C1794.57 354.903 1794.57 350.534 1794.56 346.165C1794.56 344.573 1794.56 342.982 1794.57 341.39C1794.68 308.909 1785.82 279.698 1762.75 256C1742.88 237.113 1716.78 228.198 1689.69 227.383C1662.87 228.21 1637.76 239.163 1618.94 258.308C1616.35 260.842 1613.68 262.706 1610.61 264.615C1602.9 269.953 1596.96 276.048 1595.24 285.458C1593.4 299.305 1594 313.464 1594.29 327.392C1594.4 333.572 1594.4 339.752 1594.41 345.933C1594.45 356.294 1594.56 366.653 1594.72 377.013C1594.94 391.624 1595.03 406.232 1595.1 420.845C1595.16 432.208 1595.26 443.571 1595.35 454.934C1595.37 456.15 1595.38 457.367 1595.39 458.62C1595.45 465.605 1595.52 472.59 1595.63 479.574C1595.66 481.689 1595.68 483.804 1595.7 485.919C1595.73 488.804 1595.78 491.688 1595.83 494.573C1595.83 495.829 1595.83 495.829 1595.84 497.111C1596.01 504.726 1598.85 510.258 1604.32 515.633C1605.57 516.577 1606.84 517.494 1608.13 518.383C1609.18 519.126 1610.23 519.868 1611.32 520.633C1611.32 521.293 1611.32 521.953 1611.32 522.633C1586.57 522.633 1561.82 522.633 1536.32 522.633C1538.32 518.633 1538.32 518.633 1540.25 516.446C1545.11 509.824 1545.76 502.552 1545.71 494.558C1545.72 493.583 1545.72 492.608 1545.73 491.603C1545.75 488.356 1545.74 485.109 1545.74 481.862C1545.74 479.526 1545.75 477.189 1545.76 474.853C1545.78 468.52 1545.79 462.187 1545.78 455.855C1545.78 450.562 1545.79 445.269 1545.8 439.975C1545.82 426.77 1545.82 413.565 1545.82 400.36C1545.81 388.914 1545.83 377.467 1545.86 366.02C1545.9 354.245 1545.91 342.47 1545.91 330.695C1545.91 324.093 1545.91 317.491 1545.94 310.889C1545.96 304.677 1545.96 298.467 1545.94 292.256C1545.93 289.982 1545.94 287.709 1545.95 285.435C1546.19 268.878 1546.19 268.878 1540.32 253.633C1541.97 252.759 1541.97 252.759 1543.66 251.867C1562.2 241.91 1578.17 229.546 1594.23 216.022C1651.05 168.371 1744.13 164.463 1799.26 217.539Z" fill="#001A79"/>
<path d="M2850.21 226.684C2852.1 228.428 2854.02 230.068 2856 231.696C2859.87 235.001 2863.1 238.705 2866.32 242.633C2867.43 243.969 2867.43 243.969 2868.56 245.332C2889 270.841 2901.81 301.305 2906.32 333.633C2906.41 334.273 2906.5 334.913 2906.6 335.573C2909.35 356.61 2908.12 379.04 2903.32 399.633C2903.13 400.415 2902.95 401.197 2902.76 402.003C2895.92 430.144 2880.25 455.871 2860.32 476.633C2859.06 477.969 2859.06 477.969 2857.77 479.332C2823.21 515.094 2773.74 531.912 2724.91 533.762C2688.06 534.384 2650.73 527.902 2623.32 501.633C2618.4 496.634 2614.1 491.529 2610.32 485.633C2609.66 485.303 2609 484.973 2608.32 484.633C2608.35 507.834 2608.41 531.034 2608.5 554.235C2608.54 565.007 2608.57 575.78 2608.59 586.552C2608.6 595.943 2608.63 605.333 2608.67 614.723C2608.69 619.695 2608.71 624.666 2608.71 629.637C2608.71 634.319 2608.72 639 2608.76 643.682C2608.77 645.398 2608.77 647.114 2608.76 648.829C2608.59 662.455 2608.59 662.455 2615.46 673.91C2616.15 674.458 2616.85 675.006 2617.57 675.57C2618.83 676.58 2620.08 677.597 2621.32 678.633C2621.32 678.963 2621.32 679.293 2621.32 679.633C2596.57 679.633 2571.82 679.633 2546.32 679.633C2547.97 677.983 2549.62 676.333 2551.32 674.633C2556.54 669.021 2558.56 664.684 2558.57 656.966C2558.58 655.976 2558.58 655.976 2558.58 654.966C2558.59 652.751 2558.58 650.535 2558.58 648.32C2558.58 646.717 2558.58 645.114 2558.59 643.511C2558.6 639.103 2558.6 634.694 2558.59 630.286C2558.59 625.533 2558.6 620.779 2558.61 616.026C2558.62 606.71 2558.62 597.394 2558.62 588.078C2558.62 580.503 2558.62 572.928 2558.62 565.353C2558.62 564.275 2558.62 563.197 2558.62 562.087C2558.63 559.898 2558.63 557.708 2558.63 555.519C2558.64 534.974 2558.64 514.429 2558.63 493.884C2558.63 475.102 2558.64 456.32 2558.66 437.538C2558.67 418.249 2558.68 398.959 2558.68 379.67C2558.68 368.842 2558.68 358.014 2558.69 347.187C2558.71 337.964 2558.71 328.741 2558.7 319.518C2558.69 314.816 2558.69 310.113 2558.7 305.411C2558.71 301.098 2558.71 296.786 2558.69 292.473C2558.69 290.921 2558.69 289.368 2558.7 287.815C2558.76 275.863 2558.06 264.348 2552.32 253.633C2553.3 253.293 2554.28 252.952 2555.29 252.602C2570.98 247.027 2584.65 238.939 2598.72 230.129C2607.28 224.771 2615.91 219.547 2624.55 214.318C2627.18 212.717 2629.79 211.096 2632.41 209.469C2701.22 166.878 2789.34 169.987 2850.21 226.684ZM2629.73 262.908C2625.94 265.615 2622.1 268.251 2618.25 270.883C2617.59 271.337 2616.93 271.79 2616.25 272.258C2613.62 274.065 2610.97 275.861 2608.32 277.633C2607.83 280.401 2607.83 280.401 2607.87 283.715C2607.85 285.013 2607.83 286.311 2607.81 287.649C2607.8 289.096 2607.79 290.543 2607.78 291.99C2607.77 293.508 2607.75 295.025 2607.73 296.543C2607.66 301.539 2607.63 306.535 2607.6 311.531C2607.59 313.253 2607.58 314.974 2607.56 316.696C2607.51 324.79 2607.46 332.885 2607.44 340.979C2607.41 350.309 2607.33 359.636 2607.21 368.965C2607.12 376.182 2607.07 383.398 2607.06 390.616C2607.06 394.923 2607.03 399.228 2606.96 403.535C2606.89 407.596 2606.87 411.653 2606.9 415.714C2606.91 417.196 2606.89 418.678 2606.84 420.159C2606.65 427.605 2607.26 433.236 2612.52 438.808C2615.02 441.216 2617.63 443.429 2620.32 445.633C2621.61 446.815 2622.91 448.001 2624.19 449.195C2625.56 450.353 2626.93 451.497 2628.32 452.633C2629.33 453.475 2630.34 454.317 2631.39 455.184C2663.6 481.48 2703.58 489.816 2744.65 486.168C2776.72 482.774 2805.72 467.883 2826.95 443.594C2849.82 414.989 2861.61 378.302 2857.63 341.696C2855.78 326.334 2851.44 312.333 2844.32 298.633C2843.61 297.191 2843.61 297.191 2842.89 295.719C2838.95 287.996 2833.83 281.275 2828.32 274.633C2827.67 273.857 2827.67 273.857 2827.01 273.065C2804.37 246.208 2770.64 230.22 2735.94 226.946C2734.07 226.825 2732.19 226.72 2730.32 226.633C2729.55 226.592 2728.78 226.551 2727.99 226.508C2690.97 225.501 2659 241.873 2629.73 262.908Z" fill="#001A79"/>
<path d="M2440.32 217.633C2441.2 218.292 2442.08 218.951 2442.99 219.629C2479.26 247.823 2504.24 290.103 2509.97 335.774C2510.22 338.52 2510.38 341.181 2510.44 343.93C2510.69 353.624 2512.26 360.109 2517.32 368.633C2517.65 369.623 2517.98 370.613 2518.32 371.633C2410.08 371.633 2301.84 371.633 2190.32 371.633C2196.38 397.098 2203.37 418.741 2220.32 438.633C2220.75 439.147 2221.18 439.661 2221.62 440.191C2243.41 465.996 2277.02 481.136 2310.32 484.633C2311.62 484.797 2311.62 484.797 2312.96 484.965C2353.07 489.269 2397.01 484.653 2429.78 459.684C2432.26 457.764 2432.26 457.764 2434.03 455.864C2435.32 454.633 2435.32 454.633 2437.32 454.633C2437.32 480.043 2437.32 505.453 2437.32 531.633C2436.66 531.633 2436 531.633 2435.32 531.633C2433.49 529.698 2431.85 527.643 2430.17 525.578C2427.64 522.922 2425.56 521.771 2421.89 521.363C2415.25 521.394 2409.19 522.23 2402.73 523.75C2400.73 524.197 2398.72 524.644 2396.72 525.09C2393.63 525.793 2390.54 526.5 2387.45 527.21C2331.11 540.083 2271.7 534.047 2221.81 503.539C2182.89 478.839 2154.25 440.544 2144 395.383C2143.39 392.474 2142.84 389.558 2142.32 386.633C2142.09 385.402 2141.86 384.171 2141.63 382.903C2134.79 338.151 2145.61 289.122 2172.48 252.463C2176.88 246.69 2181.78 241.369 2186.84 236.16C2188.26 234.693 2189.66 233.211 2191.07 231.727C2201.26 221.175 2212.6 212.927 2225.32 205.633C2225.92 205.279 2226.52 204.925 2227.14 204.56C2291.93 166.722 2380.94 171.76 2440.32 217.633ZM2220.13 271.071C2208.26 284.459 2199.91 300.088 2193.32 316.633C2192.93 317.526 2192.55 318.42 2192.16 319.34C2191.14 321.696 2191.14 321.696 2191.32 324.633C2280.09 324.633 2368.86 324.633 2460.32 324.633C2457.62 313.841 2457.62 313.841 2453.63 303.696C2453.11 302.548 2453.11 302.548 2452.58 301.377C2447.51 290.479 2441.13 280.771 2433.32 271.633C2432.65 270.824 2431.99 270.014 2431.3 269.18C2409.35 243.377 2375.83 230.502 2342.82 227.293C2296.24 223.569 2252.45 236.412 2220.13 271.071Z" fill="#001A79"/>
<path d="M3378.62 218.496C3379.27 218.931 3379.92 219.366 3380.59 219.814C3383.85 221.992 3387.09 224.177 3390.33 226.377C3406.71 237.455 3420.18 244.854 3440.32 245.633C3440.32 246.293 3440.32 246.953 3440.32 247.633C3439.57 248.169 3438.83 248.706 3438.07 249.258C3431.79 254.675 3429.76 262.974 3429.13 271.023C3429.05 273.595 3429.03 276.161 3429.04 278.735C3429.04 279.713 3429.03 280.691 3429.03 281.699C3429.01 284.955 3429.01 288.211 3429.01 291.467C3429 293.81 3428.99 296.153 3428.98 298.496C3428.96 304.845 3428.95 311.194 3428.95 317.543C3428.94 321.511 3428.94 325.479 3428.93 329.447C3428.91 340.446 3428.9 351.444 3428.89 362.443C3428.89 363.497 3428.89 363.497 3428.89 364.572C3428.89 365.995 3428.89 367.419 3428.89 368.843C3428.89 369.55 3428.89 370.256 3428.89 370.984C3428.89 371.692 3428.89 372.4 3428.89 373.129C3428.89 384.604 3428.86 396.079 3428.82 407.555C3428.78 419.352 3428.76 431.15 3428.76 442.948C3428.76 449.565 3428.75 456.183 3428.73 462.801C3428.7 469.021 3428.7 475.242 3428.71 481.463C3428.72 483.745 3428.71 486.026 3428.69 488.308C3428.67 491.425 3428.68 494.541 3428.7 497.658C3428.68 499.009 3428.68 499.009 3428.66 500.387C3428.74 506.644 3430.35 510.77 3434.32 515.633C3436.61 517.71 3438.57 519.259 3441.32 520.633C3441.32 521.293 3441.32 521.953 3441.32 522.633C3420.86 522.633 3400.4 522.633 3379.32 522.633C3379.32 510.093 3379.32 497.553 3379.32 484.633C3375.9 488.046 3373.05 491.132 3370.13 494.883C3351.06 518.276 3323.28 528.933 3293.96 532.297C3245 536.815 3195.1 528.595 3154.32 499.633C3153.3 498.916 3152.28 498.2 3151.23 497.461C3143.74 492.029 3136.99 486.003 3130.32 479.633C3129.47 478.854 3128.63 478.076 3127.76 477.274C3099.79 450.643 3081.61 409.8 3080.19 371.266C3080.11 367.304 3080.07 363.345 3080.07 359.383C3080.07 358.675 3080.06 357.968 3080.06 357.239C3080.14 308.967 3099.31 263.831 3133.32 229.633C3145.81 218.18 3159.21 208.317 3174.32 200.633C3174.98 200.289 3175.64 199.946 3176.33 199.592C3243.85 164.979 3317.74 177.798 3378.62 218.496ZM3255.36 226.758C3225.25 228.846 3197.06 239.61 3174.32 259.633C3173.41 260.391 3172.51 261.149 3171.58 261.93C3146.94 283.23 3132.18 314.535 3129.43 346.778C3128.03 381.973 3138.02 416.766 3161.32 443.633C3162 444.452 3162.69 445.27 3163.39 446.114C3183.94 469.944 3213.99 483.593 3245.09 486.356C3284.42 489.206 3324.95 481.96 3355.5 455.758C3357.8 453.743 3360.06 451.694 3362.32 449.633C3362.91 449.093 3363.51 448.552 3364.12 447.995C3367.88 444.575 3371.62 441.128 3375.32 437.633C3376.02 437.051 3376.73 436.468 3377.45 435.868C3379.93 432.899 3379.84 431.122 3379.88 427.284C3379.9 425.977 3379.92 424.67 3379.95 423.324C3379.95 421.878 3379.96 420.432 3379.96 418.986C3379.98 417.461 3380 415.937 3380.02 414.412C3380.07 410.271 3380.1 406.131 3380.12 401.99C3380.13 399.402 3380.14 396.813 3380.16 394.225C3380.22 386.122 3380.26 378.019 3380.27 369.916C3380.29 360.569 3380.36 351.225 3380.48 341.879C3380.56 334.65 3380.6 327.422 3380.61 320.192C3380.61 315.876 3380.64 311.563 3380.71 307.247C3380.77 303.185 3380.78 299.126 3380.75 295.063C3380.74 293.577 3380.76 292.09 3380.8 290.603C3380.91 286.033 3380.81 281.975 3379.32 277.633C3375.72 274.055 3371.8 271.918 3367.32 269.633C3365.8 268.585 3364.3 267.512 3362.84 266.395C3361.82 265.638 3361.82 265.638 3360.78 264.866C3360.09 264.356 3359.4 263.846 3358.69 263.321C3328.41 241.23 3293.76 224.31 3255.36 226.758Z" fill="#001A79"/>
<path d="M1431.1 221.156C1431.99 221.748 1431.99 221.748 1432.89 222.352C1435.81 224.303 1438.72 226.26 1441.63 228.227C1457.47 238.89 1469.17 244.893 1488.32 245.633C1487.05 248.369 1485.95 250.033 1483.88 252.321C1476.72 260.727 1477.17 273.02 1477.17 283.462C1477.16 284.885 1477.16 284.885 1477.16 286.337C1477.15 289.494 1477.14 292.652 1477.14 295.809C1477.13 298.081 1477.13 300.354 1477.12 302.626C1477.1 310.066 1477.09 317.506 1477.08 324.946C1477.07 327.511 1477.07 330.077 1477.07 332.643C1477.05 343.313 1477.03 353.983 1477.03 364.653C1477.02 367.415 1477.02 370.177 1477.02 372.939C1477.02 373.625 1477.02 374.311 1477.02 375.019C1477.01 386.147 1476.99 397.276 1476.95 408.405C1476.92 419.849 1476.9 431.293 1476.9 442.737C1476.9 449.155 1476.89 455.573 1476.86 461.991C1476.84 468.026 1476.83 474.06 1476.85 480.095C1476.85 482.306 1476.84 484.518 1476.83 486.73C1476.81 489.755 1476.81 492.779 1476.83 495.804C1476.82 496.674 1476.81 497.544 1476.79 498.441C1476.87 505.323 1478.44 511.787 1483.46 516.754C1484.15 517.189 1484.85 517.623 1485.57 518.071C1486.84 518.887 1488.1 519.732 1489.32 520.633C1489.32 521.293 1489.32 521.953 1489.32 522.633C1469.19 522.633 1449.06 522.633 1428.32 522.633C1428.32 510.093 1428.32 497.553 1428.32 484.633C1427.33 484.633 1426.34 484.633 1425.32 484.633C1424.99 485.677 1424.99 485.677 1424.66 486.742C1422.97 490.381 1420.55 493.011 1417.82 495.883C1417.28 496.454 1416.74 497.024 1416.18 497.612C1407.41 506.812 1398.59 513.788 1387.32 519.633C1385.96 520.343 1385.96 520.343 1384.57 521.067C1365.65 530.301 1344.13 532.955 1323.32 533.633C1321.45 533.695 1321.45 533.695 1319.54 533.758C1266.91 534.612 1216.8 515.979 1178.5 479.796C1146.83 449.106 1128.93 405.919 1128.15 362.047C1127.73 313.494 1145.02 268.891 1178.32 233.633C1179.04 232.847 1179.76 232.06 1180.5 231.25C1248.78 159.516 1355.45 170.58 1431.1 221.156ZM1251.32 240.633C1250.65 240.968 1249.99 241.303 1249.3 241.649C1228.03 252.566 1210.25 268.505 1197.32 288.633C1196.67 289.629 1196.02 290.626 1195.36 291.653C1178.1 319.741 1173.89 354.753 1181.32 386.633C1185.64 404.457 1192.39 420.809 1203.32 435.633C1203.92 436.458 1204.52 437.283 1205.14 438.133C1225.05 464.181 1253.66 480.959 1286.24 485.549C1325.78 490.571 1367.37 483.803 1399.46 459.342C1405.44 454.663 1411.18 449.699 1416.55 444.32C1418.32 442.633 1418.32 442.633 1420.77 440.67C1426.11 436.087 1428.94 432.737 1429.61 425.607C1429.68 422.863 1429.7 420.153 1429.67 417.412C1429.69 415.898 1429.72 414.384 1429.75 412.87C1429.81 408.785 1429.81 404.702 1429.79 400.616C1429.78 397.197 1429.8 393.778 1429.83 390.358C1429.88 382.288 1429.87 374.22 1429.84 366.15C1429.8 357.841 1429.86 349.537 1429.95 341.229C1430.03 334.077 1430.06 326.926 1430.04 319.773C1430.03 315.509 1430.04 311.248 1430.1 306.984C1430.16 302.974 1430.15 298.97 1430.08 294.96C1430.07 293.495 1430.08 292.029 1430.12 290.565C1430.43 282.794 1430.43 282.794 1426.93 276.173C1423.05 273.057 1418.74 270.888 1414.32 268.633C1412.76 267.569 1411.21 266.477 1409.71 265.332C1409.05 264.836 1408.39 264.34 1407.7 263.829C1406.71 263.082 1406.71 263.082 1405.69 262.321C1360.24 228.996 1303.97 213.976 1251.32 240.633Z" fill="#001A79"/>
<path d="M701.003 38.3206C701.745 38.3227 702.487 38.3249 703.252 38.3271C747.788 38.534 786.416 55.9058 818.316 86.6331C819.069 87.3227 819.821 88.0124 820.597 88.7229C847.788 114.386 866.476 154.995 867.58 192.491C867.642 195.955 867.646 199.418 867.628 202.883C867.626 203.974 867.626 203.974 867.623 205.086C867.577 215.886 867.089 226.141 864.316 236.633C864.026 237.754 864.026 237.754 863.731 238.897C859.764 254.065 859.764 254.065 856.316 257.633C855.656 257.633 854.996 257.633 854.316 257.633C854.276 256.895 854.236 256.157 854.196 255.396C852.523 225.597 848.097 197.957 833.316 171.633C832.689 170.517 832.063 169.4 831.417 168.25C812.117 135.557 781.429 111.076 744.613 101.348C722.701 95.8964 696.296 94.6749 674.316 100.633C673.546 100.832 672.776 101.03 671.983 101.235C641.721 109.166 615.545 124.89 592.316 145.633C591.78 146.107 591.244 146.581 590.692 147.07C572.863 162.904 558.54 181.237 544.175 200.182C535.368 211.792 526.492 223.287 516.652 234.051C514.776 236.125 512.943 238.223 511.117 240.34C506.954 245.104 502.573 249.633 498.128 254.133C497.335 254.956 496.541 255.778 495.724 256.625C494.956 257.401 494.189 258.177 493.398 258.977C492.365 260.032 492.365 260.032 491.311 261.108C489.316 262.633 489.316 262.633 485.316 262.633C485.108 261.794 484.901 260.955 484.687 260.09C474.06 218.606 452.947 186.215 418.316 160.633C417.278 159.862 416.24 159.091 415.171 158.297C371.749 127.164 316.815 115.644 264.287 124.122C229.999 130.218 198.765 144.162 171.316 165.633C169.891 166.739 169.891 166.739 168.437 167.867C163.125 172.104 158.066 176.6 153.066 181.196C152.216 181.973 152.216 181.973 151.349 182.765C136.119 196.953 124.409 214.614 113.094 231.945C112.717 232.521 112.339 233.097 111.951 233.69C110.917 235.271 109.888 236.856 108.859 238.44C108.35 239.164 107.841 239.888 107.316 240.633C106.986 240.633 106.656 240.633 106.316 240.633C106.853 233.956 108.154 228.089 110.316 221.758C110.626 220.847 110.935 219.936 111.254 218.997C121.312 190.256 138.342 163.02 159.681 141.304C161.48 139.466 163.25 137.602 165.023 135.739C205.974 93.1894 266.563 69.1566 325.316 67.6331C327.232 67.5732 327.232 67.5732 329.187 67.512C381.166 66.4091 435.101 83.2968 477.316 113.633C478.348 114.372 479.381 115.11 480.445 115.871C490.648 123.361 500.351 131.531 509.413 140.367C511.205 141.809 511.205 141.809 513.261 141.653C516.24 140.175 517.947 138.068 520.128 135.571C520.571 135.07 521.014 134.569 521.471 134.053C523.357 131.914 525.215 129.751 527.066 127.582C535.067 118.24 543.906 109.55 553.316 101.633C554.673 100.442 554.673 100.442 556.058 99.2268C596.452 63.984 646.489 38.0336 701.003 38.3206Z" fill="#E11A21"/>
<path d="M907.316 55.633C915.946 63.5663 923.393 72.1839 930.316 81.633C930.736 82.1979 931.156 82.7629 931.588 83.3449C963.924 127.343 969.373 185.564 961.351 238.098C951.283 300.327 925.034 374.917 880.511 421.332C878.653 423.279 876.901 425.265 875.148 427.305C870.933 432.145 866.426 436.669 861.878 441.195C861.071 442.007 860.263 442.818 859.431 443.654C854.555 448.522 849.553 453.158 844.316 457.633C842.835 458.936 842.835 458.936 841.324 460.266C772.918 519.402 677.572 552.332 587.191 546.133C585.232 545.973 583.273 545.809 581.316 545.633C581.316 544.973 581.316 544.313 581.316 543.633C582.271 543.144 582.271 543.144 583.246 542.646C598.817 534.663 614.166 526.39 629.316 517.633C630.473 516.966 631.63 516.299 632.787 515.632C648.878 506.343 664.758 496.797 680.316 486.633C680.921 486.238 681.527 485.843 682.15 485.437C685.563 483.204 688.946 480.93 692.316 478.633C693.215 478.021 693.215 478.021 694.132 477.397C708.548 467.577 722.709 457.461 736.611 446.924C738.004 445.869 739.401 444.821 740.8 443.774C746.299 439.598 751.477 435.069 756.672 430.525C760.283 427.371 763.935 424.303 767.691 421.32C780.567 410.831 792.194 398.848 803.941 387.133C804.785 386.293 804.785 386.293 805.646 385.436C811.755 379.349 817.747 373.225 823.316 366.633C824.161 365.669 825.007 364.705 825.878 363.711C857.307 327.245 882.285 285.058 894.191 238.195C894.477 237.071 894.764 235.947 895.059 234.789C898.388 221.093 899.703 207.562 899.628 193.508C899.626 192.791 899.625 192.075 899.623 191.336C899.571 179.235 898.78 167.5 896.316 155.633C896.149 154.811 895.983 153.989 895.812 153.143C886.525 108.669 859.791 72.1769 822.202 47.2302C794.302 29.0672 761.851 16.6402 728.179 16.4299C727.425 16.423 726.671 16.4161 725.895 16.409C723.473 16.3919 721.051 16.3856 718.628 16.383C717.803 16.3813 716.979 16.3797 716.129 16.3779C701.847 16.3762 687.934 17.1067 674.054 20.7267C669.868 21.7415 666.581 21.7853 662.316 21.633C663.316 18.633 663.316 18.633 665.3 17.4572C744.161 -14.9561 843.562 -2.23315 907.316 55.633Z" fill="#DF1920"/>
<path d="M3745.32 223.633C3746.31 224.553 3746.31 224.553 3747.33 225.492C3767.34 244.379 3779.86 271.901 3785.57 298.383C3785.73 299.139 3785.89 299.894 3786.06 300.673C3788.43 312.348 3788.47 324.063 3788.47 335.924C3788.48 337.648 3788.48 339.372 3788.49 341.097C3788.5 344.791 3788.51 348.484 3788.51 352.178C3788.53 358.03 3788.55 363.882 3788.57 369.734C3788.63 386.367 3788.68 403 3788.72 419.634C3788.74 428.836 3788.76 438.037 3788.81 447.238C3788.83 452.097 3788.84 456.956 3788.84 461.815C3788.85 466.387 3788.86 470.959 3788.89 475.531C3788.9 477.199 3788.9 478.868 3788.89 480.536C3788.87 493.746 3789.1 507.226 3798.32 517.633C3799.04 518.167 3799.76 518.7 3800.51 519.25C3801.1 519.707 3801.7 520.163 3802.32 520.633C3802.32 521.293 3802.32 521.953 3802.32 522.633C3777.24 522.633 3752.16 522.633 3726.32 522.633C3726.32 521.973 3726.32 521.313 3726.32 520.633C3727.2 520.138 3728.09 519.643 3729 519.133C3733.94 516.047 3736.12 510.307 3737.87 504.94C3738.49 501.726 3738.46 498.549 3738.46 495.288C3738.47 494.175 3738.47 494.175 3738.47 493.039C3738.49 490.551 3738.49 488.062 3738.49 485.574C3738.5 483.79 3738.51 482.006 3738.51 480.221C3738.53 474.356 3738.54 468.491 3738.55 462.625C3738.56 460.601 3738.56 458.577 3738.57 456.553C3738.59 447.033 3738.6 437.513 3738.61 427.993C3738.62 417.036 3738.64 406.08 3738.68 395.124C3738.71 386.638 3738.73 378.152 3738.73 369.666C3738.74 364.607 3738.74 359.549 3738.77 354.49C3738.79 349.718 3738.8 344.946 3738.79 340.174C3738.79 338.436 3738.79 336.699 3738.81 334.962C3739.03 305.692 3729.3 278.55 3708.94 257.247C3690.21 238.605 3665.37 229.377 3639.32 227.633C3638.08 227.544 3638.08 227.544 3636.82 227.453C3634.62 227.379 3632.51 227.469 3630.32 227.633C3629.17 227.713 3628.03 227.793 3626.85 227.875C3603.89 230.086 3584.69 239.834 3567.32 254.633C3566.37 255.432 3565.43 256.231 3564.46 257.055C3560.04 260.928 3555.97 264.895 3552.28 269.478C3550.32 271.633 3550.32 271.633 3547.83 273.475C3543.18 277.137 3540.27 280.124 3539.4 286.015C3538.93 291.588 3539.04 297.159 3539.13 302.745C3539.13 304.891 3539.12 307.037 3539.11 309.183C3539.1 314.992 3539.14 320.798 3539.2 326.606C3539.25 332.692 3539.25 338.778 3539.26 344.864C3539.27 355.082 3539.32 365.298 3539.4 375.515C3539.49 388.621 3539.53 401.726 3539.55 414.832C3539.57 426.113 3539.61 437.393 3539.66 448.674C3539.67 452.294 3539.68 455.915 3539.69 459.535C3539.71 465.227 3539.75 470.918 3539.79 476.609C3539.81 478.696 3539.82 480.782 3539.82 482.869C3539.83 485.721 3539.86 488.572 3539.89 491.424C3539.89 492.246 3539.88 493.068 3539.88 493.915C3540.02 502.429 3542.68 508.602 3548.46 514.875C3550.9 517.183 3553.49 518.842 3556.32 520.633C3556.32 521.293 3556.32 521.953 3556.32 522.633C3531.57 522.633 3506.82 522.633 3481.32 522.633C3483.32 518.633 3483.32 518.633 3485.32 516.196C3490.66 509.348 3490.46 501.33 3490.46 493.019C3490.47 492.058 3490.47 491.096 3490.47 490.105C3490.49 486.885 3490.49 483.666 3490.49 480.447C3490.5 478.137 3490.51 475.827 3490.51 473.517C3490.53 465.936 3490.54 458.355 3490.55 450.774C3490.56 448.162 3490.56 445.55 3490.57 442.938C3490.58 432.074 3490.6 421.21 3490.61 410.347C3490.61 407.531 3490.61 404.715 3490.61 401.9C3490.61 401.2 3490.61 400.5 3490.61 399.779C3490.62 388.444 3490.65 377.109 3490.68 365.774C3490.71 354.123 3490.73 342.472 3490.73 330.822C3490.74 324.285 3490.74 317.749 3490.77 311.213C3490.79 305.064 3490.8 298.915 3490.79 292.765C3490.79 290.512 3490.79 288.258 3490.81 286.005C3490.82 282.921 3490.82 279.838 3490.8 276.755C3490.81 275.87 3490.83 274.985 3490.84 274.073C3490.78 268.357 3489.58 264.044 3487.17 258.855C3486.32 256.633 3486.32 256.633 3486.32 252.633C3487.29 252.293 3488.25 251.952 3489.25 251.602C3512.76 243.18 3531.48 230.634 3550.04 214.096C3607.49 163.092 3691.41 171.509 3745.32 223.633Z" fill="#001A79"/>
<path d="M2959.32 41.6331C2978.79 41.6331 2998.26 41.6331 3018.32 41.6331C3018.32 47.3966 3018.32 53.1601 3018.33 59.0983C3018.36 111.945 3018.42 164.792 3018.49 217.64C3018.5 224.565 3018.51 231.491 3018.52 238.417C3018.52 239.106 3018.53 239.795 3018.53 240.505C3018.56 262.836 3018.58 285.167 3018.59 307.498C3018.6 331.1 3018.63 354.703 3018.67 378.305C3018.7 392.442 3018.71 406.579 3018.71 420.716C3018.71 430.409 3018.72 440.102 3018.75 449.795C3018.76 455.388 3018.77 460.981 3018.76 466.574C3018.75 471.698 3018.76 476.821 3018.79 481.944C3018.79 483.795 3018.79 485.645 3018.78 487.496C3018.43 502.743 3018.43 502.743 3024.65 516.29C3025.82 517.454 3027.06 518.551 3028.32 519.633C3028.81 521.118 3028.81 521.118 3029.32 522.633C3005.56 522.633 2981.8 522.633 2957.32 522.633C2959.3 520.323 2961.28 518.013 2963.32 515.633C2964.78 512.875 2964.78 512.875 2965.63 510.133C2965.93 509.256 2966.24 508.38 2966.55 507.477C2968.11 501.674 2968.46 495.921 2968.45 489.941C2968.45 489.194 2968.45 488.448 2968.45 487.678C2968.46 485.181 2968.46 482.683 2968.46 480.186C2968.46 478.375 2968.46 476.565 2968.47 474.754C2968.47 469.782 2968.48 464.81 2968.48 459.838C2968.48 454.475 2968.49 449.111 2968.49 443.748C2968.51 432.023 2968.51 420.298 2968.52 408.573C2968.52 401.252 2968.52 393.932 2968.53 386.611C2968.54 366.344 2968.55 346.076 2968.55 325.809C2968.55 324.512 2968.55 323.215 2968.55 321.879C2968.55 320.579 2968.55 319.28 2968.55 317.94C2968.56 315.306 2968.56 312.672 2968.56 310.038C2968.56 308.732 2968.56 307.425 2968.56 306.079C2968.56 284.898 2968.58 263.717 2968.6 242.536C2968.63 220.791 2968.64 199.046 2968.64 177.301C2968.64 165.091 2968.65 152.881 2968.66 140.672C2968.68 130.278 2968.68 119.884 2968.68 109.489C2968.67 104.186 2968.67 98.8828 2968.69 93.5795C2968.7 88.7237 2968.7 83.8682 2968.69 79.0124C2968.68 77.2567 2968.69 75.5011 2968.7 73.7454C2968.76 60.2795 2967.8 52.9501 2959.32 41.6331Z" fill="#001A77"/>
<path d="M3592.32 668.633C3599.91 668.633 3607.5 668.633 3615.32 668.633C3615.33 671.379 3615.33 671.379 3615.35 674.18C3615.44 691.411 3615.55 708.642 3615.66 725.873C3615.71 734.732 3615.76 743.592 3615.81 752.451C3615.86 760.172 3615.9 767.893 3615.95 775.615C3615.98 779.703 3616 783.792 3616.02 787.881C3616.04 791.729 3616.07 795.578 3616.1 799.426C3616.11 800.839 3616.11 802.251 3616.12 803.663C3616.13 805.592 3616.14 807.522 3616.16 809.451C3616.16 810.531 3616.17 811.61 3616.18 812.722C3616.31 815.464 3616.7 817.964 3617.32 820.633C3616.51 821.011 3615.71 821.388 3614.89 821.778C3607.74 825.237 3600.93 828.998 3594.19 833.196C3576.22 844.352 3559.63 850.012 3538.16 845.981C3519.89 841.186 3505.62 830.183 3496.16 814.047C3487.29 797.595 3486.25 779.47 3491.32 761.633C3497.54 745.067 3509.89 732.465 3525.82 724.821C3543.41 717.355 3563.05 716.042 3581.13 722.664C3585.72 724.736 3589.1 727.198 3592.6 730.809C3593.31 731.526 3594.01 732.243 3594.73 732.982C3595.51 733.799 3595.51 733.799 3596.32 734.633C3596.36 727.157 3596.4 719.681 3596.42 712.205C3596.43 708.734 3596.44 705.262 3596.47 701.791C3596.49 697.797 3596.5 693.803 3596.51 689.809C3596.52 688.566 3596.53 687.323 3596.54 686.043C3596.54 684.882 3596.54 683.721 3596.54 682.525C3596.55 681.506 3596.55 680.486 3596.56 679.436C3596.3 676.449 3595.67 674.302 3594.32 671.633C3593.33 671.138 3593.33 671.138 3592.32 670.633C3592.32 669.973 3592.32 669.313 3592.32 668.633ZM3518 751.883C3509.42 762.077 3506.78 774.036 3507 787.071C3507.84 796.558 3511.66 804.129 3517.32 811.633C3517.89 812.499 3518.47 813.366 3519.07 814.258C3528.42 824.127 3541.17 829.38 3554.63 829.946C3564.86 829.622 3574.82 826.65 3583.32 820.876C3585.32 819.633 3585.32 819.633 3588.35 818.355C3592.21 816.319 3595.16 814.452 3597.32 810.633C3599.27 802.899 3598.83 794.753 3598.61 786.84C3598.5 783.01 3598.5 779.191 3598.52 775.36C3598.49 772.917 3598.46 770.474 3598.42 768.031C3598.42 766.893 3598.42 765.754 3598.42 764.581C3598.22 759.04 3597.89 755.535 3593.9 751.488C3592.73 750.504 3591.54 749.548 3590.32 748.633C3589.5 747.949 3588.68 747.264 3587.83 746.559C3566.26 731.201 3536.54 732.549 3518 751.883Z" fill="#C00000"/>
<path d="M3769.32 733.633C3770.33 734.355 3771.34 735.077 3772.38 735.82C3786 747.585 3791.71 764.315 3793.89 781.531C3794.28 784.807 3794.28 784.807 3795.32 788.633C3756.38 788.633 3717.44 788.633 3677.32 788.633C3682.79 805.06 3687.86 815.545 3703.32 823.633C3719.12 830.157 3735.96 830.202 3752.32 825.633C3757.33 823.44 3761.77 820.662 3766.32 817.633C3766.32 827.203 3766.32 836.773 3766.32 846.633C3765 845.643 3763.68 844.653 3762.32 843.633C3757.69 843.248 3753.94 843.878 3749.5 845.133C3727.73 850.006 3705.42 847.214 3686.32 835.633C3672.2 825.927 3662.57 812.074 3659 795.195C3656.3 777 3659.75 759.016 3670.5 743.974C3681.74 729.578 3697.52 722.081 3715.19 718.945C3735.2 717.038 3753.33 721.336 3769.32 733.633ZM3687.98 751.406C3683.48 757.426 3679.14 764.335 3677.32 771.633C3709.33 771.633 3741.34 771.633 3774.32 771.633C3769.94 759.601 3765.42 750.365 3754.32 743.633C3753.7 743.257 3753.09 742.88 3752.46 742.492C3732.48 731.432 3703.74 734.403 3687.98 751.406Z" fill="#C20000"/>
<path d="M3271.34 736.962C3276.6 740.417 3280.96 742.129 3287.32 742.633C3286.84 743.355 3286.37 744.077 3285.88 744.821C3283.02 749.961 3283.17 755.084 3283.19 760.848C3283.18 761.662 3283.18 762.475 3283.18 763.314C3283.18 765.994 3283.18 768.675 3283.18 771.356C3283.18 773.222 3283.18 775.089 3283.18 776.955C3283.18 780.863 3283.18 784.771 3283.19 788.679C3283.19 793.688 3283.19 798.698 3283.18 803.707C3283.18 807.56 3283.18 811.412 3283.18 815.265C3283.18 817.112 3283.18 818.959 3283.18 820.806C3283.18 823.387 3283.18 825.967 3283.19 828.547C3283.18 829.692 3283.18 829.692 3283.18 830.86C3283.08 835.865 3283.08 835.865 3284.32 840.633C3285.31 840.963 3286.3 841.293 3287.32 841.633C3286.99 842.293 3286.66 842.953 3286.32 843.633C3275.43 843.138 3275.43 843.138 3264.32 842.633C3263.99 839.003 3263.66 835.373 3263.32 831.633C3262.2 832.85 3261.09 834.067 3259.94 835.321C3251.17 844.074 3240.58 846.84 3228.48 847.014C3207.51 846.977 3189.25 842.649 3173.94 827.391C3161.54 814.359 3155.77 799.476 3155.89 781.492C3156.46 763.684 3164.08 747.643 3176.75 735.258C3205.92 709.629 3241.83 717.031 3271.34 736.962ZM3185.43 752.926C3176.2 764.743 3174.39 777.049 3175.32 791.633C3175.89 795.226 3176.83 798.319 3178.32 801.633C3178.64 802.374 3178.97 803.115 3179.31 803.879C3185.73 816.691 3195.57 823.853 3208.79 828.504C3221.54 831.865 3236.83 829.99 3248.32 823.633C3251.46 821.796 3254.46 819.9 3257.32 817.633C3257.88 817.213 3258.45 816.794 3259.03 816.362C3263.14 812.897 3264.79 810.265 3265.36 804.872C3265.47 802.612 3265.53 800.349 3265.56 798.086C3265.59 796.879 3265.62 795.672 3265.65 794.429C3265.69 791.88 3265.72 789.332 3265.72 786.783C3265.75 782.904 3265.91 779.041 3266.06 775.164C3266.7 763.251 3266.7 763.251 3262.76 752.387C3258.54 748.283 3253.66 745.928 3248.32 743.633C3246.48 742.624 3244.64 741.607 3242.82 740.571C3222.83 731.451 3200.35 737.364 3185.43 752.926Z" fill="#C20000"/>
<path d="M3328.32 722.633C3337.89 722.633 3347.46 722.633 3357.32 722.633C3355.34 725.603 3355.34 725.603 3353.32 728.633C3352.72 732.182 3352.72 732.182 3352.8 736.024C3352.79 736.739 3352.78 737.454 3352.78 738.19C3352.76 740.54 3352.77 742.889 3352.78 745.239C3352.78 746.885 3352.78 748.532 3352.77 750.178C3352.77 753.627 3352.78 757.076 3352.79 760.525C3352.82 764.918 3352.8 769.311 3352.78 773.704C3352.77 777.106 3352.77 780.508 3352.78 783.909C3352.78 785.528 3352.78 787.146 3352.77 788.764C3352.72 799.251 3353.58 808.164 3358.94 817.446C3366.99 824.855 3376.92 828.535 3387.82 829.008C3400.66 828.451 3411.22 823.362 3420.04 814.149C3422.92 810.726 3422.48 807.236 3422.51 802.974C3422.52 802.183 3422.52 801.393 3422.53 800.579C3422.56 797.956 3422.57 795.334 3422.59 792.711C3422.6 791.368 3422.6 791.368 3422.61 789.998C3422.63 785.258 3422.65 780.518 3422.67 775.778C3422.68 770.884 3422.73 765.99 3422.78 761.097C3422.81 757.332 3422.82 753.568 3422.83 749.803C3422.84 748 3422.85 746.196 3422.87 744.392C3422.91 741.864 3422.91 739.338 3422.9 736.81C3422.92 736.068 3422.93 735.326 3422.95 734.561C3422.88 728.417 3421.74 727.948 3417.32 722.633C3426.56 722.633 3435.8 722.633 3445.32 722.633C3444.66 724.283 3444 725.933 3443.32 727.633C3443.03 729.636 3443.03 729.636 3443.07 731.631C3443.06 732.391 3443.06 733.151 3443.06 733.933C3443.06 734.752 3443.07 735.571 3443.07 736.415C3443.07 737.725 3443.07 737.725 3443.07 739.062C3443.06 741.943 3443.07 744.823 3443.09 747.703C3443.09 749.707 3443.09 751.71 3443.09 753.714C3443.09 757.908 3443.1 762.103 3443.11 766.298C3443.13 771.679 3443.13 777.061 3443.13 782.442C3443.13 786.577 3443.14 790.712 3443.14 794.847C3443.15 796.832 3443.15 798.816 3443.15 800.801C3443.15 803.571 3443.16 806.34 3443.17 809.11C3443.17 810.344 3443.17 810.344 3443.17 811.604C3443.19 814.871 3443.28 817.512 3444.32 820.633C3443.54 821.155 3442.76 821.677 3441.96 822.215C3436.48 825.95 3431.16 829.711 3426.05 833.949C3414.67 843.351 3403.43 846.812 3388.75 846.883C3387.72 846.904 3386.68 846.924 3385.62 846.946C3370.9 847.019 3357.07 842.057 3346.28 831.84C3338.31 822.897 3334.22 812.388 3334.16 800.507C3334.15 799.809 3334.15 799.111 3334.14 798.391C3334.13 796.881 3334.12 795.37 3334.12 793.86C3334.1 791.463 3334.09 789.066 3334.06 786.669C3334 779.855 3333.95 773.041 3333.91 766.226C3333.89 762.051 3333.86 757.876 3333.81 753.702C3333.8 752.118 3333.79 750.535 3333.79 748.951C3333.79 735.15 3333.79 735.15 3328.32 722.633Z" fill="#BD0000"/>
<path d="M3099.51 720.293C3103.18 720.853 3103.18 720.853 3110.32 719.633C3110.32 727.883 3110.32 736.133 3110.32 744.633C3106.46 743.092 3102.93 741.452 3099.28 739.535C3092.73 736.527 3084.58 736.578 3077.82 738.883C3073.61 740.885 3073.61 740.885 3071.32 744.633C3069.82 750.708 3070.03 755.124 3073.32 760.633C3079.45 766.818 3087.58 769.498 3095.49 772.82C3105.23 777.107 3114.19 783.015 3119.32 792.633C3123.25 802.975 3123.37 814.38 3119.53 824.742C3115.38 833.974 3108.43 840.376 3099.32 844.633C3093.39 846.787 3087.92 846.98 3081.69 846.945C3080.72 846.944 3079.74 846.943 3078.74 846.942C3072.11 846.853 3066.29 846.078 3059.89 844.305C3055.41 843.136 3051.74 843.159 3047.32 844.633C3046.99 834.733 3046.66 824.833 3046.32 814.633C3049.62 816.284 3051.69 817.682 3054.44 820.008C3062.86 826.674 3072.65 829.512 3083.32 828.633C3088.99 827.718 3093.82 826.771 3098.44 823.258C3102.29 817.869 3103.14 813.159 3102.32 806.633C3100.4 799.277 3096.61 795.587 3090.32 791.633C3086.72 789.797 3083.04 788.204 3079.32 786.633C3068.43 782.034 3057.17 776.263 3052.44 764.695C3049.85 755.626 3049.88 744.362 3054 735.809C3059.16 727.291 3065.98 721.834 3075.69 719.321C3083.81 717.84 3091.52 718.391 3099.51 720.293Z" fill="#C10000"/>
<path d="M3407.19 671.071C3408.45 671.111 3409.71 671.152 3411.01 671.194C3414.12 671.3 3417.21 671.447 3420.32 671.633C3419.01 674.488 3417.61 676.614 3415.44 678.883C3414.88 679.486 3414.31 680.089 3413.72 680.71C3413.11 681.344 3412.5 681.979 3411.88 682.633C3410.61 683.974 3409.34 685.315 3408.07 686.657C3407.12 687.658 3407.12 687.658 3406.16 688.679C3402.63 692.424 3399.18 696.24 3395.72 700.047C3394.93 700.901 3394.13 701.754 3393.32 702.633C3392.57 703.563 3391.83 704.492 3391.06 705.449C3387.21 708.515 3384.27 708.205 3379.5 707.946C3378.72 707.923 3377.93 707.9 3377.11 707.877C3375.18 707.819 3373.25 707.729 3371.32 707.633C3372.66 704.012 3374.28 700.896 3376.36 697.649C3376.96 696.713 3377.56 695.777 3378.18 694.813C3378.8 693.846 3379.42 692.879 3380.07 691.883C3380.67 690.932 3381.28 689.98 3381.91 689C3383.12 687.109 3384.35 685.227 3385.59 683.355C3387.35 680.695 3387.35 680.695 3388.62 677.944C3392.86 669.741 3398.65 670.55 3407.19 671.071Z" fill="#BD0000"/>
</svg>
