<svg xmlns="http://www.w3.org/2000/svg" width="562" height="148" viewBox="4 166 562 148" fill="none">
  <path d="M79.1738 313.008C65.2599 313.008 52.7249 310.125 41.5687 304.359C30.4125 298.468 21.638 290.32 15.2451 279.916C8.97758 269.386 5.84382 257.478 5.84382 244.191C5.84382 230.904 8.97758 219.058 15.2451 208.654C21.638 198.125 30.4125 189.977 41.5687 184.211C52.7249 178.319 65.2599 175.374 79.1738 175.374C91.9595 175.374 103.366 177.63 113.394 182.143C123.422 186.655 131.696 193.173 138.214 201.697L110.198 226.705C102.05 216.426 92.4609 211.287 81.4301 211.287C72.1542 211.287 64.6958 214.295 59.055 220.312C53.4143 226.203 50.5939 234.163 50.5939 244.191C50.5939 254.219 53.4143 262.242 59.055 268.258C64.6958 274.15 72.1542 277.096 81.4301 277.096C92.4609 277.096 102.05 271.956 110.198 261.677L138.214 286.685C131.696 295.209 123.422 301.727 113.394 306.239C103.366 310.752 91.9595 313.008 79.1738 313.008ZM206.932 175.374C219.718 175.374 230.999 177.943 240.777 183.083C250.554 188.097 258.138 195.492 263.528 205.27C269.043 214.922 271.801 226.454 271.801 239.866V310H227.427V283.488H185.685V310H142.063V239.866C142.063 226.454 144.758 214.922 150.149 205.27C155.664 195.492 163.31 188.097 173.088 183.083C182.865 177.943 194.146 175.374 206.932 175.374ZM227.427 250.02V236.106C227.427 227.958 225.484 221.816 221.598 217.679C217.838 213.418 212.824 211.287 206.556 211.287C200.289 211.287 195.212 213.418 191.326 217.679C187.566 221.816 185.685 227.958 185.685 236.106V250.02H227.427ZM284.272 178.382H349.141C363.807 178.382 376.718 181.077 387.874 186.467C399.155 191.732 407.867 199.316 414.01 209.218C420.277 219.121 423.411 230.779 423.411 244.191C423.411 257.604 420.277 269.261 414.01 279.164C407.867 289.066 399.155 296.713 387.874 302.103C376.718 307.368 363.807 310 349.141 310H284.272V178.382ZM347.26 275.403C356.787 275.403 364.371 272.708 370.012 267.318C375.778 261.803 378.661 254.094 378.661 244.191C378.661 234.288 375.778 226.642 370.012 221.252C364.371 215.737 356.787 212.979 347.26 212.979H328.646V275.403H347.26ZM558.884 178.382V310H515.826V295.898C506.926 307.305 494.767 313.008 479.349 313.008C463.931 313.008 451.96 307.932 443.436 297.778C434.913 287.625 430.651 273.21 430.651 254.532V178.382H475.025V253.216C475.025 261.239 476.717 267.256 480.101 271.267C483.486 275.153 488.187 277.096 494.203 277.096C500.095 277.096 504.921 274.965 508.681 270.703C512.567 266.315 514.51 259.985 514.51 251.712V178.382H558.884Z" fill="#F9746E"/>
</svg>
