<svg width="153" height="100" viewBox="0 0 153 100" fill="none" xmlns="http://www.w3.org/2000/svg">
<defs>
<linearGradient id="paint0_linear_32208_6386" x1="98.4292" y1="-2.45027" x2="24.3519" y2="91.5242" gradientUnits="userSpaceOnUse">
<stop stop-color="#FF4F47"/>
<stop offset="0.545157" stop-color="#FFACA8"/>
<stop offset="1" stop-color="#F9746E" stop-opacity="0.35"/>
</linearGradient>
</defs>
<g data-cadu-nofilter="1">
<path d="M62.1554 19.2702C62.1933 20.0414 62.4705 20.7817 62.9485 21.3882L76.1003 37.6287C81.9779 44.8911 86.5915 51.4988 81.7827 63.5379C64.6581 103.365 21.4378 83.5356 21.4378 83.5356C21.4378 83.5356 6.33488 75.5058 3.19925 74.3929C0.0636088 73.2801 2.2712 74.2793 1.90244 74.908C1.53368 75.5368 1.86453 74.5213 1.95632 75.2183C2.04811 75.9153 2.37596 76.5622 2.89428 77.0691C2.89428 77.0691 22.5086 95.1298 46.2622 96.1696C70.0158 97.2093 98.8168 74.4758 98.8168 74.4758C102.397 71.5804 106.602 69.5596 111.1 68.5736C115.598 67.5877 120.263 67.6639 124.727 68.7961L144.994 73.9244C145.745 74.1049 146.533 74.0469 147.249 73.7586C147.966 73.4702 148.574 72.9659 148.991 72.3157C149.407 71.6654 149.611 70.9015 149.573 70.1303C149.535 69.3591 149.258 68.6187 148.78 68.0123L135.642 51.7502C132.746 48.1701 130.724 43.9644 129.738 39.4669C128.752 34.9693 128.827 30.3039 129.959 25.841L135.086 5.5752C135.266 4.82441 135.208 4.03604 134.92 3.31972C134.631 2.6034 134.127 1.99472 133.476 1.5783C132.826 1.16187 132.062 0.958398 131.291 0.996169C130.52 1.03394 129.779 1.3111 129.173 1.78907L112.911 14.9247C105.649 20.8013 96.0569 22.904 87.0015 20.6043L66.7343 15.4761C65.9834 15.2956 65.195 15.3536 64.4787 15.6419C63.7624 15.9302 63.1537 16.4346 62.7373 17.0848C62.3209 17.7351 62.1176 18.4989 62.1554 19.2702Z" fill="url(#paint0_linear_32208_6386)" />
</g>
</svg>
