<svg width="75" height="76" viewBox="0 0 75 76" fill="none" xmlns="http://www.w3.org/2000/svg">
<defs>
<linearGradient id="paint0_linear_32208_6389" x1="57.2647" y1="26.5488" x2="29.807" y2="67.0365" gradientUnits="userSpaceOnUse">
<stop stop-color="#FF4F47"/>
<stop offset="0.545157" stop-color="#FFACA8"/>
<stop offset="1" stop-color="#F9746E" stop-opacity="0.35"/>
</linearGradient>
</defs>
<g data-cadu-nofilter="1">
<path d="M53.287 43.3698C52.9818 43.4504 52.659 43.434 52.3635 43.3227L44.4086 40.2063C40.8518 38.8142 37.7064 37.8336 33.6098 41.1963C20.2083 52.7947 33.2803 67.184 33.2803 67.184C33.2803 67.184 38.2771 72.0761 39.0985 73.1604C39.92 74.2446 39.2576 73.5079 39.0582 73.7294C38.8588 73.9508 39.2136 73.6963 38.9306 73.7468C38.6477 73.7972 38.355 73.7494 38.0934 73.6102C38.0934 73.6102 28.63 68.2006 25.2872 59.0732C21.9443 49.9457 27.241 35.9114 27.241 35.9114C27.9265 34.1583 28.1939 32.2695 28.0218 30.395C27.8498 28.5205 27.2431 26.7118 26.2499 25.1127L21.7451 17.8494C21.5819 17.5791 21.507 17.2647 21.5308 16.9499C21.5545 16.6351 21.6758 16.3356 21.8777 16.0929C22.0795 15.8503 22.352 15.6765 22.6573 15.5959C22.9625 15.5153 23.2852 15.5317 23.5807 15.643L31.5423 18.7513C33.2955 19.437 35.1843 19.7045 37.0589 19.5327C38.9334 19.3608 40.742 18.7543 42.3411 17.7614L49.6041 13.2574C49.8743 13.0943 50.1887 13.0194 50.5035 13.0432C50.8183 13.067 51.1179 13.1883 51.3606 13.3902C51.6032 13.5921 51.777 13.8646 51.8577 14.1698C51.9383 14.475 51.9219 14.7978 51.8106 15.0932L48.7032 23.0544C47.3114 26.611 47.6783 30.6088 49.6943 33.853L54.1991 41.1163C54.3623 41.3866 54.4372 41.701 54.4135 42.0158C54.3897 42.3306 54.2684 42.6301 54.0666 42.8728C53.8647 43.1154 53.5922 43.2892 53.287 43.3698Z" fill="url(#paint0_linear_32208_6389)" />
</g>
</svg>
