<svg width="43" height="43" viewBox="0 0 43 43" fill="none" xmlns="http://www.w3.org/2000/svg">
<path d="M0.289278 20.231C0.477337 19.9707 0.742669 19.7762 1.04757 19.6752L9.22894 16.9508C11.0277 16.3516 12.6621 15.3417 14.0028 14.0012C15.3434 12.6607 16.3534 11.0265 16.9527 9.22792L19.6774 1.04746C19.7784 0.742589 19.9729 0.477286 20.2333 0.289248C20.4936 0.10121 20.8067 9.09488e-07 21.1278 9.23527e-07C21.449 9.37566e-07 21.762 0.10121 22.0224 0.289248C22.2828 0.477286 22.4773 0.742589 22.5782 1.04746L25.303 9.22792C25.9023 11.0265 26.9123 12.6607 28.2529 14.0012C29.5935 15.3417 31.228 16.3516 33.0267 16.9508L41.2081 19.6752C41.513 19.7762 41.7783 19.9707 41.9664 20.231C42.1545 20.4914 42.2557 20.8043 42.2557 21.1255C42.2557 21.4466 42.1545 21.7596 41.9664 22.02C41.7783 22.2803 41.513 22.4748 41.2081 22.5757L33.0267 25.3002C31.228 25.8994 29.5935 26.9093 28.2529 28.2498C26.9123 29.5903 25.9023 31.2245 25.303 33.0231L22.5782 41.2035C22.4773 41.5084 22.2828 41.7737 22.0224 41.9617C21.762 42.1498 21.449 42.251 21.1278 42.251C20.8066 42.251 20.4936 42.1498 20.2333 41.9617C19.9729 41.7737 19.7784 41.5084 19.6774 41.2035L16.9527 33.0231C15.7346 29.3763 12.8761 26.5181 9.22894 25.3002L1.04757 22.5757C0.742668 22.4748 0.477337 22.2803 0.289278 22.02C0.101219 21.7596 -9.37462e-07 21.4466 -9.23424e-07 21.1255C-9.09386e-07 20.8043 0.101219 20.4914 0.289278 20.231Z" fill="#F9746E"/>
</svg>
